<svg style="opacity: 1; transition: opacity 0.3s ease 0s; overflow: visible;" id="__tmb-348"
     xmlns="http://www.w3.org/2000/svg" viewBox="0 0 250 250">
    <svg xmlns="http://www.w3.org/2000/svg"
         width="250"
         height="250"
         viewBox="80 0 350 350"
         data-svgdocument=""
         id="_2p5DEvobj55GhFDv97kOC"
         class="fl-svgdocument" x="0" y="0" style="overflow: visible;"
         xmlns:xlink="http://www.w3.org/1999/xlink">
        <defs id="_eNRGQOr6D8ArMGxUdmnlC"
              transform="matrix(0.9999999403953552, 0, 0, 0.9999999403953552, 0.00001344721022178419, 5.655219865730032e-7)"></defs>
        <path id="_0tZNmPzSTWP59HTeh8VDo"
              d="M76.7,61L53.1,46v1.2l23,14.6c0.8,0.6,0.8,1.4,0.6,2c-0.2,0.6-0.8,1.2-1.7,1.2H25.1c-1,0-1.5-0.6-1.7-1.2  c-0.2-0.6-0.2-1.4,0.6-2L48.9,46c0.5-0.4,1.1-0.5,1.7-0.3v-0.3v-0.7V42h-1.1c-2,0-3.5-1.6-3.5-3.5c0-2,1.6-3.5,3.5-3.5  c2,0,3.5,1.6,3.5,3.5h1c0-2.5-2-4.5-4.5-4.5c-2.5,0-4.5,2-4.5,4.5c0,2.5,2,4.5,4.5,4.5v1.6c-0.4,0.1-0.8,0.3-1.1,0.5L23.3,61  c-1.5,1.2-1.5,3.7,0.7,5.1H76C78.2,64.7,78.2,62.2,76.7,61z"
              stroke="none"
              fill="#00b2a5"
              transform="matrix(3.1562936305999756, 0, 0, 3.1562936305999756, 97.31459045410156, 2.7480812072753906)"></path>
        <path id="_kALIGKoM4cC998HjLFC7r"
              d="M50,95.646c24.854,0,45-20.147,45-45s-20.146-45-45-45s-45,20.147-45,45S25.146,95.646,50,95.646z M50,6.646  c24.262,0,44,19.738,44,44s-19.738,44-44,44s-44-19.738-44-44S25.738,6.646,50,6.646z"
              stroke="none"
              fill="#00b2a5"
              transform="matrix(3.0530309677124023, 0, 0, 3.0530309677124023, 102.47770690917969, 28.492809295654297)"></path>
    </svg>
</svg>